<svg xmlns="http://www.w3.org/2000/svg" viewBox="0 0 520 150"><defs><linearGradient id="g" x1="0" y1="0" x2="1" y2="1"><stop stop-color="#FFD700"/><stop offset="1" stop-color="#F97316"/></linearGradient><filter id="glow"><feGaussianBlur stdDeviation="5" result="b"/><feMerge><feMergeNode in="b"/><feMergeNode in="SourceGraphic"/></feMerge></filter></defs><rect width="520" height="150" rx="28" fill="#140D04"/><rect x="2" y="2" width="516" height="146" rx="26" fill="none" stroke="url(#g)" stroke-width="2"/><path d="M0 115 Q130 80 250 125 T520 105V150H0Z" fill="url(#g)" opacity=".08"/><circle cx="72" cy="75" r="46" fill="url(#g)" opacity=".12"/><g filter="url(#glow)" stroke="url(#g)" fill="none" stroke-width="4" stroke-linecap="round" stroke-linejoin="round"><path d="M72 25l30 12v25c0 22-13 38-30 47-17-9-30-25-30-47V37z"/><path d="M72 41v49M55 59h34"/></g><text x="142" y="58" fill="#fff" font-family="Arial,sans-serif" font-size="25" font-weight="900">ชุดเกราะพี่อัศวิน</text><rect x="142" y="82" width="150" height="26" rx="13" fill="url(#g)" opacity=".12"/><text x="217" y="100" text-anchor="middle" fill="#FFD700" font-family="Arial,sans-serif" font-size="11" font-weight="800">ARMOR CABINET</text><circle cx="474" cy="75" r="21" fill="#07111F" stroke="#FFD700" stroke-width="2"/><path d="M467 75h13M475 68l7 7-7 7" stroke="#FFD700" stroke-width="3" fill="none" stroke-linecap="round" stroke-linejoin="round"/></svg>